<?xml version="1.0" encoding="UTF-8"?>
<svg version="1.1" xmlns="http://www.w3.org/2000/svg" width="225" height="225">
<path d="M0 0 C0.94093506 0.29801514 0.94093506 0.29801514 1.90087891 0.60205078 C27.8243119 8.94730833 48.04650583 26.80033891 60.75 50.75 C71.10461408 72.2298041 74.52779382 100.13255084 67 123 C66.70198486 123.94093506 66.70198486 123.94093506 66.39794922 124.90087891 C58.05269167 150.8243119 40.19966109 171.04650583 16.25 183.75 C-5.2298041 194.10461408 -33.13255084 197.52779382 -56 190 C-56.94093506 189.70198486 -56.94093506 189.70198486 -57.90087891 189.39794922 C-83.8243119 181.05269167 -104.04650583 163.19966109 -116.75 139.25 C-127.10461408 117.7701959 -130.52779382 89.86744916 -123 67 C-122.70198486 66.05906494 -122.70198486 66.05906494 -122.39794922 65.09912109 C-114.05269167 39.1756881 -96.19966109 18.95349417 -72.25 6.25 C-50.7701959 -4.10461408 -22.86744916 -7.52779382 0 0 Z " fill="#FDFDFD" transform="translate(141,18)"/>
<path d="M0 0 C10.97592998 0.35010941 10.97592998 0.35010941 15.25 3.0625 C15.8275 3.701875 16.405 4.34125 17 5 C18.15811388 3.94729537 18.15811388 3.94729537 19 2 C19.73605469 2.433125 20.47210938 2.86625 21.23046875 3.3125 C22.20628906 3.869375 23.18210937 4.42625 24.1875 5 C25.15042969 5.556875 26.11335938 6.11375 27.10546875 6.6875 C30.10251289 8.04648358 31.78093949 8.08656297 35 8 C40.02536356 11.35024237 43.51125152 15.46944783 46 21 C46.79431126 26.36160104 45.32724537 30.81161469 43.65625 35.86328125 C42.8372381 38.52994501 42.74454426 39.48908851 44 42 C43.175 42.62648437 42.35 43.25296875 41.5 43.8984375 C38.02389456 48.21098081 38.59603519 51.29266449 39 56.625 C39.4885956 63.13309344 39.4885956 63.13309344 39 66 C36.5 68.0859375 36.5 68.0859375 34 69 C34 68.01 34 67.02 34 66 C34.99 65.34 35.98 64.68 37 64 C36.79865271 61.07896173 36.56524723 58.16665824 36.3125 55.25 C36.25900391 54.425 36.20550781 53.6 36.15039062 52.75 C35.76522225 48.59688011 35.53577676 46.59231602 32.66796875 43.421875 C29.91553733 41.68645336 29.91553733 41.68645336 26 42 C23.25 40 23.25 40 21 38 C20.4225 38.350625 19.845 38.70125 19.25 39.0625 C16.58824702 40.17156374 15.69258542 39.71802278 13 39 C12.01 39.99 12.01 39.99 11 41 C10.01 40.01 9.02 39.02 8 38 C8.33 38.66 8.66 39.32 9 40 C9.78739358 42.29371174 10.5323714 44.59970391 11.28125 46.90625 C11.95600488 49.02249078 11.95600488 49.02249078 13 51 C12.21625 51.309375 11.4325 51.61875 10.625 51.9375 C8.07669872 52.92875038 8.07669872 52.92875038 6 54 C3.64018187 53.06421005 1.30368736 52.06652192 -1 51 C-1 50.67 -1 50.34 -1 50 C0.65 50 2.3 50 4 50 C3.2236068 46.9254644 3.2236068 46.9254644 1 45 C1.66 45 2.32 45 3 45 C3 44.34 3 43.68 3 43 C1.989375 43.04125 0.97875 43.0825 -0.0625 43.125 C-4.04743007 42.99849428 -7.19254388 42.09830465 -11 41 C-11.99 41.33 -12.98 41.66 -14 42 C-14 41.01 -14 40.02 -14 39 C-15.98 39.99 -17.96 40.98 -20 42 C-19.01 42.33 -18.02 42.66 -17 43 C-19.61941217 44.74627478 -21.03824877 45.38722388 -24 46 C-24 44.68 -24 43.36 -24 42 C-24.99 42.33 -25.98 42.66 -27 43 C-26.896875 43.928125 -26.79375 44.85625 -26.6875 45.8125 C-27 49 -27 49 -29.25 50.875 C-32 52 -32 52 -36 52 C-36.33 52.66 -36.66 53.32 -37 54 C-36.34 54 -35.68 54 -35 54 C-32.19603862 58.94816714 -33.22649493 63.61682285 -34 69 C-35.485 68.505 -35.485 68.505 -37 68 C-37.06469482 68.58378418 -37.12938965 69.16756836 -37.19604492 69.76904297 C-39.52750296 90.04172102 -39.52750296 90.04172102 -45 99 C-45.693744 100.6555789 -46.36715809 102.32019842 -47 104 C-46.34 104.61875 -45.68 105.2375 -45 105.875 C-43 108 -43 108 -43 110 C-42.4534375 110.24363281 -41.906875 110.48726563 -41.34375 110.73828125 C-37.4567461 112.83078501 -34.12264562 115.69913373 -30.65625 118.41796875 C-28.19892531 120.21182042 -28.19892531 120.21182042 -25.796875 119.8984375 C-23.09836418 118.54918209 -21.73276913 116.41349985 -20 114 C-19.67 114.33 -19.34 114.66 -19 115 C-18.855625 114.0925 -18.71125 113.185 -18.5625 112.25 C-18 109 -18 109 -17.375 106.875 C-16.85734235 105.01482436 -16.85734235 105.01482436 -17.47265625 103.2734375 C-18.14233134 100.38639379 -18.09468011 97.71057046 -18.0625 94.75 C-18.05347656 93.67234375 -18.04445312 92.5946875 -18.03515625 91.484375 C-18.02355469 90.66453125 -18.01195312 89.8446875 -18 89 C-17.21625 89.804375 -16.4325 90.60875 -15.625 91.4375 C-13.28017144 93.98690417 -13.28017144 93.98690417 -11 95 C-11.33 94.01 -11.66 93.02 -12 92 C-14.1570141 84.27199266 -12.83779634 78.29719058 -10 71 C-8 74 -8 74 -8 76 C-7.01 76.99 -7.01 76.99 -6 78 C-6.375 80.625 -6.375 80.625 -7 83 C-6.360625 83.268125 -5.72125 83.53625 -5.0625 83.8125 C-3 85 -3 85 -2 88 C-2.33 88.66 -2.66 89.32 -3 90 C0.3 90.33 3.6 90.66 7 91 C7 91.99 7 92.98 7 94 C7.08571661 96.09291157 7.08571661 96.09291157 8 98 C10.49034386 99.29660434 10.49034386 99.29660434 13 100 C13.32871094 99.55269531 13.65742188 99.10539062 13.99609375 98.64453125 C17.98013721 93.58080122 22.22678656 90.78397181 28 88 C27.49855469 87.55011719 26.99710937 87.10023437 26.48046875 86.63671875 C25.74763672 85.82654297 25.74763672 85.82654297 25 85 C25.3125 82.8125 25.3125 82.8125 26 81 C26.33 81.99 26.66 82.98 27 84 C28.62418745 84.08090971 30.24951745 84.13914995 31.875 84.1875 C32.77992188 84.22230469 33.68484375 84.25710937 34.6171875 84.29296875 C35.40351563 84.19628906 36.18984375 84.09960938 37 84 C37.99 82.515 37.99 82.515 39 81 C39.33 82.32 39.66 83.64 40 85 C36.375 88 36.375 88 33 88 C33.226875 88.9075 33.45375 89.815 33.6875 90.75 C34 94 34 94 32.5625 96.375 C32.046875 96.91125 31.53125 97.4475 31 98 C30.67 97.67 30.34 97.34 30 97 C28.33570949 96.90176063 26.66718069 96.87026369 25 96.875 C24.0925 96.87242187 23.185 96.86984375 22.25 96.8671875 C20.03033389 96.74826221 20.03033389 96.74826221 19 98 C18.74994614 100.95817107 18.74994614 100.95817107 19 104 C19.66 104.66 20.32 105.32 21 106 C24.09926819 105.67801034 24.09926819 105.67801034 27 105 C27.495 103.515 27.495 103.515 28 102 C26.35 102.66 24.7 103.32 23 104 C22.4375 102.0625 22.4375 102.0625 22 100 C22.33 99.67 22.66 99.34 23 99 C25.69082872 99.17635452 28.32851446 99.61835921 31 100 C28.93413852 111.4714097 28.93413852 111.4714097 25.9375 116.375 C21.47922294 118.84128093 17.8368594 118.24774825 13 117 C10.76164126 116.07199057 8.69240344 115.04828969 6.59375 113.83984375 C5.0053545 112.84460226 5.0053545 112.84460226 3 113 C-0.82640258 116.71575962 -4.82548462 121.10734039 -7 126 C-6.5787948 129.47494293 -5.29388598 130.99535168 -2.75 133.3125 C-0.30352717 135.62058649 1.56850527 137.75584738 3.3125 140.625 C6.35243456 145.17463179 11.09718462 146.93415352 16 149 C12.13474156 150.28841948 10.8934327 149.43195789 7.1875 147.875 C6.17042969 147.45992187 5.15335938 147.04484375 4.10546875 146.6171875 C1.20215346 145.10527237 -0.93727727 143.36507805 -3.38647461 141.22167969 C-6.25500821 139.04977136 -9.52153466 137.91905365 -12.875 136.6875 C-13.56335938 136.42388672 -14.25171875 136.16027344 -14.9609375 135.88867188 C-16.63666116 135.24863853 -18.31779562 134.62280086 -20 134 C-14.28996699 137.97587484 -8.48401219 141.440652 -2.28515625 144.60546875 C0 146 0 146 2 149 C-11.6221364 143.73811594 -24.64612811 137.26025012 -36 128 C-32.30620592 134.08867157 -28.6249793 138.61251614 -23 143 C-23.99 143.33 -24.98 143.66 -26 144 C-24.35 145.98 -22.7 147.96 -21 150 C-36.94808272 142.58228711 -50.40412384 127.74145961 -57.0625 111.5 C-57.95980171 108.15007363 -58.2585838 105.44778403 -58 102 C-56.515 101.505 -56.515 101.505 -55 101 C-54.67 100.01 -54.34 99.02 -54 98 C-51.69 98.33 -49.38 98.66 -47 99 C-46.731875 98.154375 -46.46375 97.30875 -46.1875 96.4375 C-45 93 -45 93 -43.375 89.9375 C-39.74764826 81.51686203 -42.06440431 71.91659992 -44.265625 63.43359375 C-45.56623834 57.35253455 -45.75117327 51.20350784 -46 45 C-46.66 46.32 -47.32 47.64 -48 49 C-48.33 47.02 -48.66 45.04 -49 43 C-49.33 43 -49.66 43 -50 43 C-50.39859599 39.51228512 -50.1750037 38.25083864 -48.125 35.3125 C-46.77903748 33.84777608 -45.40659718 32.40659718 -44 31 C-46.475 32.485 -46.475 32.485 -49 34 C-48.71125 33.46375 -48.4225 32.9275 -48.125 32.375 C-46.90595722 29.97148554 -46.90595722 29.97148554 -46.1875 27.125 C-44.58675849 22.91252234 -42.15840896 19.07920448 -38 17 C-39.32 16.34 -40.64 15.68 -42 15 C-41 14 -41 14 -37.9375 13.9375 C-36.4834375 13.9684375 -36.4834375 13.9684375 -35 14 C-35 13.34 -35 12.68 -35 12 C-34.443125 12.28875 -33.88625 12.5775 -33.3125 12.875 C-30.91505355 14.0413253 -28.48403061 15.0339881 -26 16 C-26.763125 15.01 -27.52625 14.02 -28.3125 13 C-28.74175781 12.443125 -29.17101562 11.88625 -29.61328125 11.3125 C-31.04491137 9.65629795 -31.04491137 9.65629795 -34 10 C-34 8.35 -34 6.7 -34 5 C-33.34 5 -32.68 5 -32 5 C-30.36323743 3.0399719 -30.36323743 3.0399719 -29 1 C-28.896875 2.093125 -28.79375 3.18625 -28.6875 4.3125 C-28.02692273 7.85559629 -27.7972908 8.93243723 -25 11 C-24.01 10.67 -23.02 10.34 -22 10 C-21.34 10.33 -20.68 10.66 -20 11 C-19.67 10.01 -19.34 9.02 -19 8 C-20.32 7.67 -21.64 7.34 -23 7 C-23 6.34 -23 5.68 -23 5 C-12.35566166 3.92209232 -12.35566166 3.92209232 -7.9375 4.0625 C-4.87496819 4.33623843 -4.87496819 4.33623843 -3 2 C-2.01 2 -1.02 2 0 2 C0 1.34 0 0.68 0 0 Z " fill="#080808" transform="translate(119,37)"/>
<path d="M0 0 C0.66 0 1.32 0 2 0 C3.625 2 3.625 2 5 4 C5.99 3.01 6.98 2.02 8 1 C8.495 1.99 8.495 1.99 9 3 C10.1446875 2.7525 10.1446875 2.7525 11.3125 2.5 C14 2 14 2 17 2 C19.1875 4 19.1875 4 21 6 C21.99 5.67 22.98 5.34 24 5 C27.30359577 6.99888453 29.41793826 8.37285529 30.73535156 12.05566406 C31.18251417 14.41778269 31.43652757 16.72870773 31.625 19.125 C31.77775391 20.34123047 31.77775391 20.34123047 31.93359375 21.58203125 C32.15008536 23.80198763 32.28544802 25.78748654 32 28 C30.0234375 30.0546875 30.0234375 30.0546875 28 31 C28.47505678 32.81358154 28.95516042 34.62584179 29.4375 36.4375 C29.70433594 37.44683594 29.97117187 38.45617187 30.24609375 39.49609375 C30.75978077 41.91752001 30.75978077 41.91752001 32 43 C32.04063832 44.66617115 32.042721 46.33388095 32 48 C29.24921116 48.91692961 27.64051087 49.10886083 24.8125 49.0625 C23.554375 49.041875 22.29625 49.02125 21 49 C20.67 48.01 20.34 47.02 20 46 C20.61277612 48.96175123 21.25372522 50.38058783 23 53 C22.26394531 53.36351562 21.52789062 53.72703125 20.76953125 54.1015625 C14.95135867 57.09903583 10.73736274 59.58726776 7 65 C1.25179856 62.55395683 1.25179856 62.55395683 0.0625 59.9375 C0 58 0 58 1 56 C-0.36125 56.061875 -0.36125 56.061875 -1.75 56.125 C-4.91010647 56.00345744 -6.48395457 55.86373735 -9 54 C-9.34342449 52.66923011 -9.67619874 51.33568021 -10 50 C-11.97670607 48.24577228 -11.97670607 48.24577228 -14 47 C-13.79375 46.21625 -13.5875 45.4325 -13.375 44.625 C-13.189375 43.325625 -13.189375 43.325625 -13 42 C-13.66 41.34 -14.32 40.68 -15 40 C-15.625 37.875 -15.625 37.875 -16 36 C-17.95826216 42.85391755 -19.06682205 48.87865613 -16.9375 55.875 C-16 59 -16 59 -17 61 C-18.98 58.69 -20.96 56.38 -23 54 C-23.10892784 60.36622716 -22.95836271 66.50304264 -22.0234375 72.80859375 C-21.99511229 75.45700076 -22.5141538 76.81916123 -24 79 C-25.485 79.495 -25.485 79.495 -27 80 C-28.38576923 81.62332967 -29.72641268 83.28724465 -31 85 C-35.79622281 84.52574663 -38.83805857 82.22251146 -42.5 79.3125 C-43.33337891 78.67924805 -43.33337891 78.67924805 -44.18359375 78.03320312 C-48.01537588 75.04441307 -51.00049181 71.8221345 -54 68 C-52.74113749 64.67800171 -51.26872162 61.69869305 -49.5 58.625 C-46.65894471 53.07619407 -46.03854044 47.62466657 -45.45703125 41.515625 C-45.01468662 38.11297397 -44.19518841 35.20684297 -43 32 C-42.34 32 -41.68 32 -41 32 C-39.9609283 24.97217958 -39.9609283 24.97217958 -41 18 C-41.66 18 -42.32 18 -43 18 C-42.67 17.01 -42.34 16.02 -42 15 C-38.535 14.505 -38.535 14.505 -35 14 C-34.87625 13.2575 -34.7525 12.515 -34.625 11.75 C-34.04513299 9.19858515 -33.26291261 7.2732427 -32 5 C-31.01 5.33 -30.02 5.66 -29 6 C-29 6.99 -29 7.98 -29 9 C-27.35 8.34 -25.7 7.68 -24 7 C-25.32 6.67 -26.64 6.34 -28 6 C-22.25 3 -22.25 3 -20 3 C-19.505 3.99 -19.505 3.99 -19 5 C-18.01 4.67 -17.02 4.34 -16 4 C-13.99105606 4.63920943 -11.99220557 5.31039038 -10 6 C-7.67305036 6.37531446 -5.34023315 6.71917202 -3 7 C-2 13.75 -2 13.75 -2 16 C-1.01 16.33 -0.02 16.66 1 17 C3.67676547 15.62750037 3.67676547 15.62750037 6 14 C4.03497024 9.33007717 4.03497024 9.33007717 1.875 4.75 C1 3 1 3 0 0 Z " fill="#F6F6F6" transform="translate(125,73)"/>
<path d="M0 0 C2 3 2 3 2 5 C2.66 5.66 3.32 6.32 4 7 C3.625 9.625 3.625 9.625 3 12 C3.639375 12.268125 4.27875 12.53625 4.9375 12.8125 C7 14 7 14 8 17 C7.67 17.66 7.34 18.32 7 19 C10.3 19.33 13.6 19.66 17 20 C17 20.99 17 21.98 17 23 C17.08571661 25.09291157 17.08571661 25.09291157 18 27 C20.49034386 28.29660434 20.49034386 28.29660434 23 29 C23.32871094 28.55269531 23.65742188 28.10539062 23.99609375 27.64453125 C27.98013721 22.58080122 32.22678656 19.78397181 38 17 C37.49855469 16.55011719 36.99710937 16.10023437 36.48046875 15.63671875 C35.74763672 14.82654297 35.74763672 14.82654297 35 14 C35.3125 11.8125 35.3125 11.8125 36 10 C36.495 11.485 36.495 11.485 37 13 C38.62418745 13.08090971 40.24951745 13.13914995 41.875 13.1875 C42.77992188 13.22230469 43.68484375 13.25710937 44.6171875 13.29296875 C45.40351563 13.19628906 46.18984375 13.09960938 47 13 C47.66 12.01 48.32 11.02 49 10 C49.495 11.98 49.495 11.98 50 14 C46.375 17 46.375 17 43 17 C43.226875 17.9075 43.45375 18.815 43.6875 19.75 C44 23 44 23 42.5625 25.375 C42.046875 25.91125 41.53125 26.4475 41 27 C40.67 26.67 40.34 26.34 40 26 C38.33570949 25.90176063 36.66718069 25.87026369 35 25.875 C34.0925 25.87242187 33.185 25.86984375 32.25 25.8671875 C30.03033389 25.74826221 30.03033389 25.74826221 29 27 C28.74994614 29.95817107 28.74994614 29.95817107 29 33 C29.66 33.66 30.32 34.32 31 35 C34.09926819 34.67801034 34.09926819 34.67801034 37 34 C37.33 33.01 37.66 32.02 38 31 C36.35 31.66 34.7 32.32 33 33 C32.4375 31.0625 32.4375 31.0625 32 29 C32.495 28.505 32.495 28.505 33 28 C35.69082872 28.17635452 38.32851446 28.61835921 41 29 C38.93413852 40.4714097 38.93413852 40.4714097 35.9375 45.375 C31.47922294 47.84128093 27.8368594 47.24774825 23 46 C20.76164126 45.07199057 18.69240344 44.04828969 16.59375 42.83984375 C15.0053545 41.84460226 15.0053545 41.84460226 13 42 C9.17359742 45.71575962 5.17451538 50.10734039 3 55 C3.4212052 58.47494293 4.70611402 59.99535168 7.25 62.3125 C9.69647283 64.62058649 11.56850527 66.75584738 13.3125 69.625 C16.35243456 74.17463179 21.09718462 75.93415352 26 78 C22.13474156 79.28841948 20.8934327 78.43195789 17.1875 76.875 C16.17042969 76.45992188 15.15335938 76.04484375 14.10546875 75.6171875 C11.20215346 74.10527237 9.06272273 72.36507805 6.61352539 70.22167969 C3.74499179 68.04977136 0.47846534 66.91905365 -2.875 65.6875 C-3.56335938 65.42388672 -4.25171875 65.16027344 -4.9609375 64.88867188 C-6.63666116 64.24863853 -8.31779562 63.62280086 -10 63 C-4.28996699 66.97587484 1.51598781 70.440652 7.71484375 73.60546875 C10 75 10 75 12 78 C-1.6221364 72.73811594 -14.64612811 66.26025012 -26 57 C-22.30620592 63.08867157 -18.6249793 67.61251614 -13 72 C-13.99 72.33 -14.98 72.66 -16 73 C-14.35 74.98 -12.7 76.96 -11 79 C-26.94808272 71.58228711 -40.40412384 56.74145961 -47.0625 40.5 C-47.95980171 37.15007363 -48.2585838 34.44778403 -48 31 C-47.01 30.67 -46.02 30.34 -45 30 C-44.67 29.01 -44.34 28.02 -44 27 C-41.69 27.33 -39.38 27.66 -37 28 C-36.731875 27.154375 -36.46375 26.30875 -36.1875 25.4375 C-35 22 -35 22 -33.4375 18.75 C-31.74008131 14.95626923 -31.51665513 11.25381211 -31.30859375 7.13671875 C-31 5 -31 5 -29 3 C-28.2606282 13.61820053 -30.54217217 22.46644179 -37 31 C-36.71125 31.5775 -36.4225 32.155 -36.125 32.75 C-35 35 -35 35 -34.125 37.125 C-33.1613209 39.11358328 -33.1613209 39.11358328 -31.2734375 39.85546875 C-27.36900666 41.82110146 -24.08628877 44.72764988 -20.65625 47.41796875 C-18.19892531 49.21182042 -18.19892531 49.21182042 -15.796875 48.8984375 C-13.09836418 47.54918209 -11.73276913 45.41349985 -10 43 C-9.67 43.33 -9.34 43.66 -9 44 C-8.855625 43.0925 -8.71125 42.185 -8.5625 41.25 C-8 38 -8 38 -7.375 35.875 C-6.85734235 34.01482436 -6.85734235 34.01482436 -7.47265625 32.2734375 C-8.14233134 29.38639379 -8.09468011 26.71057046 -8.0625 23.75 C-8.05347656 22.67234375 -8.04445312 21.5946875 -8.03515625 20.484375 C-8.02355469 19.66453125 -8.01195312 18.8446875 -8 18 C-7.21625 18.804375 -6.4325 19.60875 -5.625 20.4375 C-3.28017144 22.98690417 -3.28017144 22.98690417 -1 24 C-1.495 22.515 -1.495 22.515 -2 21 C-4.1570141 13.27199266 -2.83779634 7.29719058 0 0 Z " fill="#060606" transform="translate(109,108)"/>
<path d="M0 0 C10.97592998 0.35010941 10.97592998 0.35010941 15.25 3.0625 C15.8275 3.701875 16.405 4.34125 17 5 C18.15811388 3.94729537 18.15811388 3.94729537 19 2 C19.73605469 2.433125 20.47210938 2.86625 21.23046875 3.3125 C22.20628906 3.869375 23.18210938 4.42625 24.1875 5 C25.15042969 5.556875 26.11335938 6.11375 27.10546875 6.6875 C30.10251289 8.04648358 31.78093949 8.08656297 35 8 C39.98893846 11.32595897 43.58874433 15.46768181 46 21 C46.3733846 23.50498532 46.265068 25.45534722 46 28 C44.68 28.33 43.36 28.66 42 29 C41.505 26.03 41.505 26.03 41 23 C40.67 25.31 40.34 27.62 40 30 C39.34 30 38.68 30 38 30 C37.34 27.69 36.68 25.38 36 23 C33.94729537 24.84188612 33.94729537 24.84188612 33 27 C33.28112064 29.00800456 33.61067967 31.01014051 34 33 C33.01 33 32.02 33 31 33 C30.360625 32.195625 29.72125 31.39125 29.0625 30.5625 C27.26565739 27.87561287 27.26565739 27.87561287 24.75 27.1875 C23.88375 27.0946875 23.88375 27.0946875 23 27 C22.67 27.66 22.34 28.32 22 29 C21.01 28.67 20.02 28.34 19 28 C18.01 28 17.02 28 16 28 C13.992592 27.53833738 12.01980516 26.98815403 10.03515625 26.4375 C7.69516509 25.8598868 7.69516509 25.8598868 4 26 C4.58007812 26.17015625 5.16015625 26.3403125 5.7578125 26.515625 C10.80356871 28.08097511 14.75955006 29.84684491 19 33 C18.505 33.99 18.505 33.99 18 35 C17.071875 34.4740625 17.071875 34.4740625 16.125 33.9375 C15.42375 33.628125 14.7225 33.31875 14 33 C13.01 33.495 13.01 33.495 12 34 C8.44470212 33.18769002 5.01508633 31.91842669 1.5625 30.75 C0.59505859 30.43675781 -0.37238281 30.12351562 -1.36914062 29.80078125 C-2.29791016 29.49011719 -3.22667969 29.17945312 -4.18359375 28.859375 C-5.03493896 28.57545898 -5.88628418 28.29154297 -6.76342773 27.99902344 C-9.07230156 26.96770462 -10.35666686 25.89664268 -12 24 C-8.535 23.505 -8.535 23.505 -5 23 C-9.9221313 20.36634013 -14.57903298 18.35524176 -20 17 C-19.34 16.34 -18.68 15.68 -18 15 C-18.99 14.67 -19.98 14.34 -21 14 C-20.34 12.02 -19.68 10.04 -19 8 C-20.32 7.67 -21.64 7.34 -23 7 C-23 6.34 -23 5.68 -23 5 C-12.35566166 3.92209232 -12.35566166 3.92209232 -7.9375 4.0625 C-4.87496819 4.33623843 -4.87496819 4.33623843 -3 2 C-2.01 2 -1.02 2 0 2 C0 1.34 0 0.68 0 0 Z " fill="#0D0D0D" transform="translate(119,37)"/>
<path d="M0 0 C1.64350079 3.28700157 2.41321669 5.47930015 3 9 C3.66 9 4.32 9 5 9 C4.45144652 13.571279 3.58255197 17.67435795 2 22 C2.66 21.67 3.32 21.34 4 21 C2.75023244 24.65316671 2.32901247 25.78065836 -1 28 C-1.33344772 29.9849654 -1.33344772 29.9849654 -1.1171875 32.24609375 C-1.08496094 33.08333984 -1.05273438 33.92058594 -1.01953125 34.78320312 C-0.92336507 36.54928195 -0.81922743 38.31494517 -0.70703125 40.08007812 C-0.62229773 42.47656304 -0.56937923 44.63966712 -1 47 C-3.5078125 49.09765625 -3.5078125 49.09765625 -6 50 C-6 49.01 -6 48.02 -6 47 C-5.01 46.34 -4.02 45.68 -3 45 C-3.20134729 42.07896173 -3.43475277 39.16665824 -3.6875 36.25 C-3.74099609 35.425 -3.79449219 34.6 -3.84960938 33.75 C-4.23477775 29.59688011 -4.46422324 27.59231602 -7.33203125 24.421875 C-10.08446267 22.68645336 -10.08446267 22.68645336 -14 23 C-16.75 21 -16.75 21 -19 19 C-19.5775 19.350625 -20.155 19.70125 -20.75 20.0625 C-23.41175298 21.17156374 -24.30741458 20.71802278 -27 20 C-27.66 20.66 -28.32 21.32 -29 22 C-30.5 20.625 -30.5 20.625 -32 19 C-32 18.34 -32 17.68 -32 17 C-32.78375 16.9175 -33.5675 16.835 -34.375 16.75 C-39.177645 15.75634931 -43.49809489 13.91286482 -48 12 C-48 11.34 -48 10.68 -48 10 C-44.87820592 8.99306838 -43.01030331 9.02710276 -39.890625 9.99609375 C-39.13652344 10.22490234 -38.38242188 10.45371094 -37.60546875 10.68945312 C-36.82816406 10.93630859 -36.05085938 11.18316406 -35.25 11.4375 C-34.06083984 11.80198242 -34.06083984 11.80198242 -32.84765625 12.17382812 C-30.89564654 12.77354195 -28.94743117 13.38558121 -27 14 C-27.33 13.34 -27.66 12.68 -28 12 C-26.35 12.66 -24.7 13.32 -23 14 C-26.25928558 11.02413055 -29.73800012 9.98208091 -33.87890625 8.74609375 C-36 8 -36 8 -39 6 C-32.83381819 5.59785771 -27.82254243 7.03181664 -22 9 C-22.33 8.34 -22.66 7.68 -23 7 C-21.35 7.66 -19.7 8.32 -18 9 C-18 8.34 -18 7.68 -18 7 C-13.14922412 8.11940982 -10.222107 9.1334716 -7 13 C-7.495 9.535 -7.495 9.535 -8 6 C-6.35 5.01 -4.7 4.02 -3 3 C-1.64560332 5.70879335 -1.93498549 8.00933268 -2 11 C-1.34 11 -0.68 11 0 11 C0 7.37 0 3.74 0 0 Z " fill="#0A0A0A" transform="translate(159,56)"/>
<path d="M0 0 C4.79149131 2.21145753 9.04108784 4.56163176 12 9 C11.9765625 11.26171875 11.9765625 11.26171875 11.625 13.6875 C11.51414063 14.49574219 11.40328125 15.30398437 11.2890625 16.13671875 C11.14597656 17.05904297 11.14597656 17.05904297 11 18 C10.67 18 10.34 18 10 18 C9.505 15.03 9.505 15.03 9 12 C8.67 14.31 8.34 16.62 8 19 C7.34 19 6.68 19 6 19 C5.34 16.69 4.68 14.38 4 12 C1.94729537 13.84188612 1.94729537 13.84188612 1 16 C1.28112064 18.00800456 1.61067967 20.01014051 2 22 C1.01 22 0.02 22 -1 22 C-1.639375 21.195625 -2.27875 20.39125 -2.9375 19.5625 C-4.73434261 16.87561287 -4.73434261 16.87561287 -7.25 16.1875 C-8.11625 16.0946875 -8.11625 16.0946875 -9 16 C-9.33 16.66 -9.66 17.32 -10 18 C-10.99 17.67 -11.98 17.34 -13 17 C-13.99 17 -14.98 17 -16 17 C-18.007408 16.53833738 -19.98019484 15.98815403 -21.96484375 15.4375 C-24.30483491 14.8598868 -24.30483491 14.8598868 -28 15 C-27.41992188 15.17015625 -26.83984375 15.3403125 -26.2421875 15.515625 C-21.19643129 17.08097511 -17.24044994 18.84684491 -13 22 C-13.33 22.66 -13.66 23.32 -14 24 C-14.61875 23.649375 -15.2375 23.29875 -15.875 22.9375 C-16.57625 22.628125 -17.2775 22.31875 -18 22 C-18.66 22.33 -19.32 22.66 -20 23 C-23.55529788 22.18769002 -26.98491367 20.91842669 -30.4375 19.75 C-31.40494141 19.43675781 -32.37238281 19.12351562 -33.36914062 18.80078125 C-34.29791016 18.49011719 -35.22667969 18.17945312 -36.18359375 17.859375 C-37.03493896 17.57545898 -37.88628418 17.29154297 -38.76342773 16.99902344 C-41.07230156 15.96770462 -42.35666686 14.89664268 -44 13 C-39.48281619 11.63115642 -36.41225737 12.52924754 -32 14 C-32 13.34 -32 12.68 -32 12 C-30.02 11.67 -28.04 11.34 -26 11 C-26 10.34 -26 9.68 -26 9 C-23.59454362 7.79727181 -22.05003047 7.89928528 -19.375 7.9375 C-18.14910156 7.95103516 -18.14910156 7.95103516 -16.8984375 7.96484375 C-15.95871094 7.98224609 -15.95871094 7.98224609 -15 8 C-16.32 7.34 -17.64 6.68 -19 6 C-12.44672101 6.27305329 -8.93069452 8.81211141 -4 13 C-6.68058098 9.42589203 -9.42589203 6.68058098 -13 4 C-9.12867972 4.57352893 -6.91827204 6.48704352 -4 9 C-5.32 7.02 -6.64 5.04 -8 3 C-7.67 2.34 -7.34 1.68 -7 1 C-6.236875 1.33 -5.47375 1.66 -4.6875 2 C-2.00930865 3.17436686 -2.00930865 3.17436686 1 3 C0.505 1.515 0.505 1.515 0 0 Z " fill="#C9C9C9" transform="translate(151,48)"/>
<path d="M0 0 C0.99 0.66 1.98 1.32 3 2 C2.67 2.66 2.34 3.32 2 4 C1.67 4 1.34 4 1 4 C1 4.99 1 5.98 1 7 C0.01 7 -0.98 7 -2 7 C-2.66 6.34 -3.32 5.68 -4 5 C-4.66 5 -5.32 5 -6 5 C-6.66 7.64 -7.32 10.28 -8 13 C-7.34 13 -6.68 13 -6 13 C-5.67 11.68 -5.34 10.36 -5 9 C-2.1875 8.375 -2.1875 8.375 1 8 C1.99 8.66 2.98 9.32 4 10 C3.01 10.33 2.02 10.66 1 11 C1.2165625 11.74765625 1.433125 12.4953125 1.65625 13.265625 C1.9346875 14.25046875 2.213125 15.2353125 2.5 16.25 C2.7784375 17.22453125 3.056875 18.1990625 3.34375 19.203125 C4 22 4 22 4 26 C-4.78355525 24.89009541 -4.78355525 24.89009541 -8 21 C-10.68944231 16.96583653 -11.20032929 14.95424446 -11.3125 10.125 C-11.34988281 9.07570313 -11.38726562 8.02640625 -11.42578125 6.9453125 C-11 4 -11 4 -9.203125 1.640625 C-6.05939656 -0.70044937 -3.82027404 -0.41675717 0 0 Z " fill="#C1C1C1" transform="translate(101,90)"/>
<path d="M0 0 C0.80824219 0.19464844 1.61648437 0.38929687 2.44921875 0.58984375 C3.06410156 0.74582031 3.67898437 0.90179688 4.3125 1.0625 C4.3125 0.4025 4.3125 -0.2575 4.3125 -0.9375 C19.09382118 -1.49103075 19.09382118 -1.49103075 25.3125 2.0625 C24.3225 2.3925 23.3325 2.7225 22.3125 3.0625 C22.6425 3.7225 22.9725 4.3825 23.3125 5.0625 C22.56484375 4.8459375 21.8171875 4.629375 21.046875 4.40625 C20.06203125 4.1278125 19.0771875 3.849375 18.0625 3.5625 C17.08796875 3.2840625 16.1134375 3.005625 15.109375 2.71875 C12.14226587 1.91021134 12.14226587 1.91021134 8.3125 2.0625 C8.89257812 2.23265625 9.47265625 2.4028125 10.0703125 2.578125 C15.11606871 4.14347511 19.07205006 5.90934491 23.3125 9.0625 C22.9825 9.7225 22.6525 10.3825 22.3125 11.0625 C21.69375 10.711875 21.075 10.36125 20.4375 10 C19.73625 9.690625 19.035 9.38125 18.3125 9.0625 C17.3225 9.5575 17.3225 9.5575 16.3125 10.0625 C12.75720212 9.25019002 9.32758633 7.98092669 5.875 6.8125 C4.90755859 6.49925781 3.94011719 6.18601562 2.94335938 5.86328125 C2.01458984 5.55261719 1.08582031 5.24195312 0.12890625 4.921875 C-0.72243896 4.63795898 -1.57378418 4.35404297 -2.45092773 4.06152344 C-4.75980156 3.03020462 -6.04416686 1.95914268 -7.6875 0.0625 C-4.39053895 -1.03648702 -3.28255097 -0.80874444 0 0 Z " fill="#E7E7E7" transform="translate(114.6875,60.9375)"/>
<path d="M0 0 C0.99 0.66 1.98 1.32 3 2 C2.67 2.66 2.34 3.32 2 4 C1.67 4 1.34 4 1 4 C1 4.99 1 5.98 1 7 C0.01 7 -0.98 7 -2 7 C-2.66 6.34 -3.32 5.68 -4 5 C-4.66 5 -5.32 5 -6 5 C-6.33 8.3 -6.66 11.6 -7 15 C-7.66 15 -8.32 15 -9 15 C-6.1204024 19.57748509 -6.1204024 19.57748509 -2 23 C1.12521833 23.16699232 1.12521833 23.16699232 4 23 C4 23.99 4 24.98 4 26 C-4.78355525 24.89009541 -4.78355525 24.89009541 -8 21 C-10.68944231 16.96583653 -11.20032929 14.95424446 -11.3125 10.125 C-11.34988281 9.07570313 -11.38726562 8.02640625 -11.42578125 6.9453125 C-11 4 -11 4 -9.203125 1.640625 C-6.05939656 -0.70044937 -3.82027404 -0.41675717 0 0 Z " fill="#343434" transform="translate(101,90)"/>
<path d="M0 0 C4.79149131 2.21145753 9.04108784 4.56163176 12 9 C11.9765625 11.26171875 11.9765625 11.26171875 11.625 13.6875 C11.45871094 14.89986328 11.45871094 14.89986328 11.2890625 16.13671875 C11.14597656 17.05904297 11.14597656 17.05904297 11 18 C10.67 18 10.34 18 10 18 C9.67 16.02 9.34 14.04 9 12 C8.67 14.31 8.34 16.62 8 19 C7.34 19 6.68 19 6 19 C5.34 16.69 4.68 14.38 4 12 C3.34 12.66 2.68 13.32 2 14 C1.01 13.67 0.02 13.34 -1 13 C-1.33 11.02 -1.66 9.04 -2 7 C-0.68 7.99 0.64 8.98 2 10 C1.484375 9.236875 0.96875 8.47375 0.4375 7.6875 C-0.036875 6.800625 -0.51125 5.91375 -1 5 C-0.67 4.01 -0.34 3.02 0 2 C0.33 2 0.66 2 1 2 C0.67 1.34 0.34 0.68 0 0 Z " fill="#B6B6B6" transform="translate(151,48)"/>
<path d="M0 0 C4.53124842 0.36542326 7.70195197 1.55542715 11.875 3.3125 C11.875 3.9725 11.875 4.6325 11.875 5.3125 C10.885 5.9725 9.895 6.6325 8.875 7.3125 C7.66215124 10.36679073 7.66215124 10.36679073 6.875 13.3125 C6.215 12.9825 5.555 12.6525 4.875 12.3125 C4.05 12.4775 3.225 12.6425 2.375 12.8125 C-0.125 13.3125 -0.125 13.3125 -2.125 12.3125 C-2.125 11.3225 -2.125 10.3325 -2.125 9.3125 C-3.445 8.6525 -4.765 7.9925 -6.125 7.3125 C-5.34253906 7.26351562 -4.56007812 7.21453125 -3.75390625 7.1640625 C-2.74199219 7.08929688 -1.73007813 7.01453125 -0.6875 6.9375 C0.32183594 6.86789063 1.33117187 6.79828125 2.37109375 6.7265625 C3.61052734 6.52160156 3.61052734 6.52160156 4.875 6.3125 C5.205 5.6525 5.535 4.9925 5.875 4.3125 C2.245 3.6525 -1.385 2.9925 -5.125 2.3125 C-3.125 0.3125 -3.125 0.3125 0 0 Z " fill="#0C0C0C" transform="translate(140.125,96.6875)"/>
<path d="M0 0 C0.80244141 0.22880859 1.60488281 0.45761719 2.43164062 0.69335938 C3.26501953 0.94021484 4.09839844 1.18707031 4.95703125 1.44140625 C6.22450195 1.80588867 6.22450195 1.80588867 7.51757812 2.17773438 C9.60377235 2.77884118 11.68695426 3.39038459 13.76953125 4.00390625 C13.43953125 3.34390625 13.10953125 2.68390625 12.76953125 2.00390625 C14.08953125 2.66390625 15.40953125 3.32390625 16.76953125 4.00390625 C16.76953125 4.99390625 16.76953125 5.98390625 16.76953125 7.00390625 C16.10953125 7.00390625 15.44953125 7.00390625 14.76953125 7.00390625 C14.43953125 7.99390625 14.10953125 8.98390625 13.76953125 10.00390625 C13.10953125 10.66390625 12.44953125 11.32390625 11.76953125 12.00390625 C10.26953125 10.62890625 10.26953125 10.62890625 8.76953125 9.00390625 C8.76953125 8.34390625 8.76953125 7.68390625 8.76953125 7.00390625 C7.98578125 6.92140625 7.20203125 6.83890625 6.39453125 6.75390625 C1.59188625 5.76025556 -2.72856364 3.91677107 -7.23046875 2.00390625 C-7.23046875 1.34390625 -7.23046875 0.68390625 -7.23046875 0.00390625 C-3.95510143 -1.08788286 -3.18633256 -0.92652223 0 0 Z " fill="#2B2B2B" transform="translate(118.23046875,65.99609375)"/>
<path d="M0 0 C4.62 0.99 9.24 1.98 14 3 C14.65928474 7.61499316 15 10.62374102 15 15 C14.01 15.66 13.02 16.32 12 17 C12 16.34 12 15.68 12 15 C9.03 14.505 9.03 14.505 6 14 C6.33 13.34 6.66 12.68 7 12 C5.68 11.34 4.36 10.68 3 10 C3.99 9.34 4.98 8.68 6 8 C5.67 6.35 5.34 4.7 5 3 C3.35 2.67 1.7 2.34 0 2 C0 1.34 0 0.68 0 0 Z " fill="#767676" transform="translate(108,77)"/>
<path d="M0 0 C5.24099655 0.41105855 8.24039194 1.24039194 12 5 C12 5.66 12 6.32 12 7 C12.63474075 8.34882408 13.29848848 9.6846659 14 11 C12.68 10.67 11.36 10.34 10 10 C9.67 10.66 9.34 11.32 9 12 C8.46890625 11.37609375 7.9378125 10.7521875 7.390625 10.109375 C4.54023827 7.59432788 2.43943179 7.05205039 -1.25 6.25 C-2.32765625 6.00765625 -3.4053125 5.7653125 -4.515625 5.515625 C-5.33546875 5.34546875 -6.1553125 5.1753125 -7 5 C-7 4.34 -7 3.68 -7 3 C-4.59454362 1.79727181 -3.05003047 1.89928528 -0.375 1.9375 C0.85089844 1.95103516 0.85089844 1.95103516 2.1015625 1.96484375 C3.04128906 1.98224609 3.04128906 1.98224609 4 2 C2.68 1.34 1.36 0.68 0 0 Z " fill="#8D8D8D" transform="translate(132,54)"/>
<path d="M0 0 C0.33 0.99 0.66 1.98 1 3 C2.62418745 3.08090971 4.24951745 3.13914995 5.875 3.1875 C6.77992188 3.22230469 7.68484375 3.25710937 8.6171875 3.29296875 C9.40351563 3.19628906 10.18984375 3.09960938 11 3 C11.66 2.01 12.32 1.02 13 0 C13.33 1.32 13.66 2.64 14 4 C10.375 7 10.375 7 7 7 C7 8.65 7 10.3 7 12 C3.37 12.66 -0.26 13.32 -4 14 C-3 10 -3 10 -0.4375 8.25 C0.366875 7.8375 1.17125 7.425 2 7 C1.484375 6.5875 0.96875 6.175 0.4375 5.75 C-0.036875 5.1725 -0.51125 4.595 -1 4 C-0.6875 1.8125 -0.6875 1.8125 0 0 Z " fill="#272727" transform="translate(145,118)"/>
<path d="M0 0 C3.77545388 1.09068668 6.47043472 1.9083091 9 5 C8.67 5.66 8.34 6.32 8 7 C7.34 7 6.68 7 6 7 C5.67 6.67 5.34 6.34 5 6 C5.66 7.65 6.32 9.3 7 11 C4.875 11.8125 4.875 11.8125 2 12 C-0.94852257 9.86087578 -3.43037033 7.56962967 -6 5 C-5.67 4.34 -5.34 3.68 -5 3 C-4.34 3 -3.68 3 -3 3 C-2.67 2.34 -2.34 1.68 -2 1 C-1.34 1.33 -0.68 1.66 0 2 C0 1.34 0 0.68 0 0 Z " fill="#C7C7C7" transform="translate(125,39)"/>
<path d="M0 0 C0.87785156 0.00515625 1.75570312 0.0103125 2.66015625 0.015625 C3.53542969 0.01046875 4.41070312 0.0053125 5.3125 0 C7.72265625 0.265625 7.72265625 0.265625 10.72265625 2.265625 C10.39265625 3.255625 10.06265625 4.245625 9.72265625 5.265625 C6.75265625 4.935625 3.78265625 4.605625 0.72265625 4.265625 C0.72265625 5.255625 0.72265625 6.245625 0.72265625 7.265625 C2.37265625 6.935625 4.02265625 6.605625 5.72265625 6.265625 C5.39265625 7.585625 5.06265625 8.905625 4.72265625 10.265625 C-0.70200128 11.5916524 -0.70200128 11.5916524 -3.15234375 10.203125 C-4.75406331 7.44460798 -4.61036687 5.3960423 -4.27734375 2.265625 C-2.27734375 0.265625 -2.27734375 0.265625 0 0 Z " fill="#E8E8E8" transform="translate(141.27734375,132.734375)"/>
<path d="M0 0 C2.18311636 2.4350144 3.6273219 5.04346256 5 8 C4.34 8.66 3.68 9.32 3 10 C2.50371094 9.73445313 2.00742188 9.46890625 1.49609375 9.1953125 C-2.94978522 6.88379288 -7.13900324 5.21524919 -12 4 C-11.34 3.34 -10.68 2.68 -10 2 C-10.66 1.34 -11.32 0.68 -12 0 C-2.85043988 -1.37243402 -2.85043988 -1.37243402 0 0 Z " fill="#BEBEBE" transform="translate(111,50)"/>
<path d="M0 0 C2.35234768 2.35234768 2.83636542 4.10834498 3.875 7.25 C6.53048354 14.74783587 10.78245639 20.12156754 16 26 C10.07107955 24.72951705 7.21758702 21.91676219 4 17 C1.04887225 11.31634655 -0.55686807 6.40398278 0 0 Z " fill="#1D1D1D" transform="translate(59,149)"/>
<path d="M0 0 C1.1446875 0.556875 1.1446875 0.556875 2.3125 1.125 C3.6428125 1.558125 3.6428125 1.558125 5 2 C5.99 1.34 6.98 0.68 8 0 C7.690625 0.5775 7.38125 1.155 7.0625 1.75 C5.58428639 4.75782853 5.58428639 4.75782853 5 8 C6.85432087 10.27144074 6.85432087 10.27144074 9 12 C8.67 12.33 8.34 12.66 8 13 C8.66 13.66 9.32 14.32 10 15 C9.67 15.33 9.34 15.66 9 16 C9.66 16.66 10.32 17.32 11 18 C9.35 18 7.7 18 6 18 C5.9175 17.401875 5.835 16.80375 5.75 16.1875 C4.79544128 13.4033704 3.42867729 12.56688858 1 11 C1.309375 9.824375 1.309375 9.824375 1.625 8.625 C1.74875 7.75875 1.8725 6.8925 2 6 C1.34 5.34 0.68 4.68 0 4 C0 2.68 0 1.36 0 0 Z " fill="#B0B0B0" transform="translate(110,109)"/>
<path d="M0 0 C9.01406371 2.67985678 17.30640088 6.30640088 24 13 C21 14 21 14 19.0546875 13.2590332 C18.33539063 12.86031006 17.61609375 12.46158691 16.875 12.05078125 C16.08609375 11.61443359 15.2971875 11.17808594 14.484375 10.72851562 C13.66453125 10.26123047 12.8446875 9.79394531 12 9.3125 C10.77023438 8.64057617 10.77023438 8.64057617 9.515625 7.95507812 C5.44956704 5.67290344 2.65235505 3.92171129 0 0 Z " fill="#E3E3E3" transform="translate(98,170)"/>
<path d="M0 0 C4.64831618 0.68863943 7.5488271 3.17612149 10.4296875 6.796875 C13.58997367 11.40339383 14.57918606 14.43981386 14 20 C13.01 20 12.02 20 11 20 C11.0825 18.7625 11.165 17.525 11.25 16.25 C11.22949686 13.32830289 11.2213879 12.31363285 9.5 9.875 C8.675 9.25625 7.85 8.6375 7 8 C5.98679688 7.22269531 5.98679688 7.22269531 4.953125 6.4296875 C2.98511505 4.92925438 1.00050478 3.45667824 -1 2 C-0.67 1.34 -0.34 0.68 0 0 Z " fill="#212121" transform="translate(151,45)"/>
<path d="M0 0 C-0.99 0.33 -1.98 0.66 -3 1 C-2.34 3.31 -1.68 5.62 -1 8 C-1.99 8 -2.98 8 -4 8 C-4 7.34 -4 6.68 -4 6 C-5.98 5.34 -7.96 4.68 -10 4 C-9.67 2.35 -9.34 0.7 -9 -1 C-5.22102349 -2.0497157 -3.35080929 -2.10976881 0 0 Z " fill="#161616" transform="translate(105,100)"/>
<path d="M0 0 C0.66 0 1.32 0 2 0 C3.14654482 2.29308963 3.19729117 3.79909656 3.31640625 6.3515625 C3.35830078 7.20234375 3.40019531 8.053125 3.44335938 8.9296875 C3.48267578 9.81914063 3.52199219 10.70859375 3.5625 11.625 C3.60568359 12.5221875 3.64886719 13.419375 3.69335938 14.34375 C3.79956861 16.56234283 3.90161194 18.7810488 4 21 C2.35 21.99 0.7 22.98 -1 24 C-1 23.01 -1 22.02 -1 21 C-0.01 20.34 0.98 19.68 2 19 C1.34 12.73 0.68 6.46 0 0 Z " fill="#555555" transform="translate(154,82)"/>
<path d="M0 0 C0.99 0.495 1.98 0.99 3 1.5 C2.01 1.83 1.02 2.16 0 2.5 C0.33 3.16 0.66 3.82 1 4.5 C0.27554688 4.29503906 -0.44890625 4.09007813 -1.1953125 3.87890625 C-6.10960129 2.50945777 -10.93341513 1.18467363 -16 0.5 C-11.02110403 -2.81926398 -5.25586299 -2.24946672 0 0 Z " fill="#D9D9D9" transform="translate(137,61.5)"/>
<path d="M0 0 C5.62541841 0.45003347 8.61487125 1.68441485 13 5 C12.67 6.32 12.34 7.64 12 9 C9.36 7.68 6.72 6.36 4 5 C4 4.34 4 3.68 4 3 C2.0399719 1.36323743 2.0399719 1.36323743 0 0 Z " fill="#C9C9C9" transform="translate(108,46)"/>
<path d="M0 0 C1.20076172 0.31324219 1.20076172 0.31324219 2.42578125 0.6328125 C3.23402344 0.83648437 4.04226562 1.04015625 4.875 1.25 C5.48988281 1.41757812 6.10476562 1.58515625 6.73828125 1.7578125 C6.73828125 1.0978125 6.73828125 0.4378125 6.73828125 -0.2421875 C8.71828125 -0.2421875 10.69828125 -0.2421875 12.73828125 -0.2421875 C10.09923754 1.17158591 7.66707496 2.13021385 4.73828125 2.7578125 C4.73828125 3.4178125 4.73828125 4.0778125 4.73828125 4.7578125 C5.39828125 5.0878125 6.05828125 5.4178125 6.73828125 5.7578125 C1.96251786 5.2896004 -1.3064822 4.51449252 -5.26171875 1.7578125 C-2.26171875 -0.2421875 -2.26171875 -0.2421875 0 0 Z " fill="#9D9D9D" transform="translate(112.26171875,60.2421875)"/>
<path d="M0 0 C5.64 3.36 5.64 3.36 7.125 6 C7 8 7 8 5.0625 10.25 C4.381875 10.8275 3.70125 11.405 3 12 C2.01 11.67 1.02 11.34 0 11 C-0.33 9.02 -0.66 7.04 -1 5 C0.32 5.99 1.64 6.98 3 8 C2.505 7.236875 2.01 6.47375 1.5 5.6875 C0 3 0 3 0 0 Z " fill="#727272" transform="translate(150,50)"/>
<path d="M0 0 C0.33 0 0.66 0 1 0 C1.02578125 0.72445312 1.0515625 1.44890625 1.078125 2.1953125 C1.43944049 8.35409924 1.90270157 12.30015769 6 17 C9.4352048 19.29013653 10.985331 19.17842973 15 19 C15 19.99 15 20.98 15 22 C6.21644475 20.89009541 6.21644475 20.89009541 3 17 C0.20041658 12.80062487 -0.11598878 10.90294562 -0.0625 5.875 C-0.05347656 4.77929688 -0.04445313 3.68359375 -0.03515625 2.5546875 C-0.02355469 1.71164063 -0.01195313 0.86859375 0 0 Z " fill="#161616" transform="translate(90,94)"/>
<path d="M0 0 C2.66666667 2.66666667 5.33333333 5.33333333 8 8 C6.3125 8.75 6.3125 8.75 4 9 C2.2925002 7.71937515 0.62626404 6.38232443 -1 5 C-2.3242287 4.63215869 -3.65613912 4.28797019 -5 4 C-5.33 3.34 -5.66 2.68 -6 2 C-4.35 2 -2.7 2 -1 2 C-0.67 1.34 -0.34 0.68 0 0 Z " fill="#B4B4B4" transform="translate(87,45)"/>
<path d="M0 0 C0 3 0 3 -1.5 4.6875 C-1.995 5.120625 -2.49 5.55375 -3 6 C-3.99 5.67 -4.98 5.34 -6 5 C-5.67 5.53625 -5.34 6.0725 -5 6.625 C-3.77300796 9.5391061 -3.85766714 11.86867708 -4 15 C-4.33 15 -4.66 15 -5 15 C-5.66 11.7 -6.32 8.4 -7 5 C-7.66 5 -8.32 5 -9 5 C-8.67 4.01 -8.34 3.02 -8 2 C-6.865625 1.855625 -5.73125 1.71125 -4.5625 1.5625 C-1.19222799 1.38828522 -1.19222799 1.38828522 0 0 Z " fill="#B1B1B1" transform="translate(91,86)"/>
<path d="M0 0 C-3.22791555 2.1519437 -4.28400809 2.20086443 -8 2 C-8 2.66 -8 3.32 -8 4 C-6.35 4.33 -4.7 4.66 -3 5 C-3.99 5.495 -3.99 5.495 -5 6 C-5 6.66 -5 7.32 -5 8 C-6.98 8.33 -8.96 8.66 -11 9 C-11 8.01 -11 7.02 -11 6 C-10.34 6 -9.68 6 -9 6 C-9.33 4.68 -9.66 3.36 -10 2 C-6.49223216 0.39644899 -3.85645121 -0.22036864 0 0 Z " fill="#B1B1B1" transform="translate(104,40)"/>
<path d="M0 0 C5.01113235 1.4317521 6.94469549 3.98445693 10 8 C9.01 9.485 9.01 9.485 8 11 C7.79375 10.401875 7.5875 9.80375 7.375 9.1875 C5.49073918 6.18981233 3.18867916 5.38638224 0 4 C0 2.66666667 0 1.33333333 0 0 Z " fill="#848484" transform="translate(144,49)"/>
<path d="M0 0 C4.29 0.99 8.58 1.98 13 3 C12.01 3.99 11.02 4.98 10 6 C10.66 6.66 11.32 7.32 12 8 C8.25 9.125 8.25 9.125 6 8 C5.375 5.4375 5.375 5.4375 5 3 C3.35 2.67 1.7 2.34 0 2 C0 1.34 0 0.68 0 0 Z " fill="#A4A4A4" transform="translate(108,77)"/>
<path d="M0 0 C2 2 2 2 2.4375 5.3125 C1.89859263 9.85471922 0.45743005 11.14762021 -3 14 C-3 9.11046653 -1.35070626 4.68244836 0 0 Z " fill="#9B9B9B" transform="translate(164,65)"/>
<path d="M0 0 C0.99 0.66 1.98 1.32 3 2 C3 2.66 3 3.32 3 4 C-1.29 3.67 -5.58 3.34 -10 3 C-10 2.34 -10 1.68 -10 1 C-6.87293041 -0.5635348 -3.42017557 -0.39958487 0 0 Z " fill="#D7D7D7" transform="translate(135,56)"/>
<path d="M0 0 C2.51616834 0.56543109 3.4562812 1.51731443 5.0859375 3.46875 C4.27769531 3.44554687 3.46945313 3.42234375 2.63671875 3.3984375 C1.56808594 3.38039062 0.49945313 3.36234375 -0.6015625 3.34375 C-1.65730469 3.32054687 -2.71304688 3.29734375 -3.80078125 3.2734375 C-6.93658109 3.47016271 -9.09051623 4.13817346 -11.9140625 5.46875 C-8.22236395 0.705268 -5.73343009 -0.07827208 0 0 Z " fill="#DDDDDD" transform="translate(89.9140625,55.53125)"/>
<path d="M0 0 C0.99 0.33 1.98 0.66 3 1 C2.67 2.32 2.34 3.64 2 5 C2.66 5.33 3.32 5.66 4 6 C4.66 6.66 5.32 7.32 6 8 C5.67 8.99 5.34 9.98 5 11 C3.02 9.68 1.04 8.36 -1 7 C-0.67 4.69 -0.34 2.38 0 0 Z " fill="#A6A6A6" transform="translate(126,127)"/>
<path d="M0 0 C3.77545388 1.09068668 6.47043472 1.9083091 9 5 C8.67 5.66 8.34 6.32 8 7 C7.34 7 6.68 7 6 7 C5.67 6.34 5.34 5.68 5 5 C2.67843403 4.59270772 0.3431213 4.25561323 -2 4 C-2 3.01 -2 2.02 -2 1 C-1.34 1.33 -0.68 1.66 0 2 C0 1.34 0 0.68 0 0 Z " fill="#8B8B8B" transform="translate(125,39)"/>
<path d="M0 0 C1.60379341 -0.05416188 3.20811406 -0.09286638 4.8125 -0.125 C5.70582031 -0.14820313 6.59914062 -0.17140625 7.51953125 -0.1953125 C10 0 10 0 13 2 C12.67 2.99 12.34 3.98 12 5 C7.12045189 3.94276458 3.90329402 3.20878901 0 0 Z " fill="#C8C8C8" transform="translate(139,133)"/>
<path d="M0 0 C0.66 0.33 1.32 0.66 2 1 C2 1.66 2 2.32 2 3 C2.66 3 3.32 3 4 3 C4 3.66 4 4.32 4 5 C2.35 5.33 0.7 5.66 -1 6 C-1.33 6.99 -1.66 7.98 -2 9 C-2.66 9 -3.32 9 -4 9 C-3.71848913 7.68528432 -3.42446661 6.37324233 -3.125 5.0625 C-2.96257812 4.33160156 -2.80015625 3.60070312 -2.6328125 2.84765625 C-2 1 -2 1 0 0 Z " fill="#DEDEDE" transform="translate(97,94)"/>
<path d="M0 0 C0.99 0.66 1.98 1.32 3 2 C2.67 2.66 2.34 3.32 2 4 C1.67 3.67 1.34 3.34 1 3 C-3.23314767 2.76038787 -6.36736489 2.67511353 -10 5 C-9.625 3.0625 -9.625 3.0625 -9 1 C-5.98131566 -0.50934217 -3.32702771 -0.17510672 0 0 Z " fill="#565656" transform="translate(101,90)"/>
<path d="M0 0 C2.69082872 0.17635452 5.32851446 0.61835921 8 1 C5.60490662 3.89932357 3.68754757 4.50168276 0 5 C-0.5625 3.0625 -0.5625 3.0625 -1 1 C-0.67 0.67 -0.34 0.34 0 0 Z " fill="#151515" transform="translate(142,136)"/>
<path d="M0 0 C8.57142857 0.85714286 8.57142857 0.85714286 12 3 C12 3.99 12 4.98 12 6 C7.76570244 4.68938409 3.92592596 3.05643741 0 1 C0 0.67 0 0.34 0 0 Z " fill="#D9D9D9" transform="translate(113,67)"/>
<path d="M0 0 C1.65 0 3.3 0 5 0 C4.67 1.32 4.34 2.64 4 4 C3.34 3.67 2.68 3.34 2 3 C1.67 4.98 1.34 6.96 1 9 C0.34 9 -0.32 9 -1 9 C-0.67 6.03 -0.34 3.06 0 0 Z " fill="#676767" transform="translate(80,102)"/>
<path d="M0 0 C5.15464734 0.48324819 8.81550319 3.18610761 13 6 C12.67 6.66 12.34 7.32 12 8 C11.505 7.566875 11.01 7.13375 10.5 6.6875 C7.16471603 4.43618332 3.79696858 3.328939 0 2 C0 1.34 0 0.68 0 0 Z " fill="#BABABA" transform="translate(125,64)"/>
<path d="M0 0 C0.33 0.66 0.66 1.32 1 2 C0.01 3.32 -0.98 4.64 -2 6 C-3.98 5.34 -5.96 4.68 -8 4 C-8 3.34 -8 2.68 -8 2 C-5.36 1.34 -2.72 0.68 0 0 Z " fill="#0D0D0D" transform="translate(152,129)"/>
<path d="M0 0 C3.1875 1.9375 3.1875 1.9375 6 4 C5.67 4.66 5.34 5.32 5 6 C5.66 6.66 6.32 7.32 7 8 C5.35 8 3.7 8 2 8 C1.9175 7.401875 1.835 6.80375 1.75 6.1875 C0.79544128 3.4033704 -0.57132271 2.56688858 -3 1 C-2.01 0.67 -1.02 0.34 0 0 Z " fill="#6D6D6D" transform="translate(114,119)"/>
<path d="M0 0 C0.99 0.33 1.98 0.66 3 1 C2.39816251 3.02045442 1.72693904 5.02111039 1 7 C0.01 7.495 0.01 7.495 -1 8 C-1.625 5.125 -1.625 5.125 -2 2 C-1.34 1.34 -0.68 0.68 0 0 Z " fill="#B7B7B7" transform="translate(93,78)"/>
<path d="M0 0 C6.625 0.75 6.625 0.75 10 3 C10 3.66 10 4.32 10 5 C8.1875 5.625 8.1875 5.625 6 6 C5.01 5.34 4.02 4.68 3 4 C3.99 4 4.98 4 6 4 C6 3.34 6 2.68 6 2 C3.03 1.505 3.03 1.505 0 1 C0 0.67 0 0.34 0 0 Z " fill="#B0B0B0" transform="translate(132,54)"/>
<path d="M0 0 C2.57112831 1.76765071 3.07659703 3.45089059 4 6.375 C3.34 7.035 2.68 7.695 2 8.375 C-2 3.625 -2 3.625 -2 1.375 C-2.66 1.045 -3.32 0.715 -4 0.375 C-2 -0.625 -2 -0.625 0 0 Z " fill="#8F8F8F" transform="translate(112,51.625)"/>
<path d="M0 0 C1.1446875 0.556875 1.1446875 0.556875 2.3125 1.125 C3.6428125 1.558125 3.6428125 1.558125 5 2 C5.99 1.34 6.98 0.68 8 0 C6.63016497 3.16115776 6.0109362 3.9927092 3 6 C2.01 5.34 1.02 4.68 0 4 C0 2.68 0 1.36 0 0 Z " fill="#6D6D6D" transform="translate(110,109)"/>
<path d="M0 0 C2.2344598 4.03292745 2.54496743 7.44967434 3 12 C2.01 12.495 2.01 12.495 1 13 C-0.32229189 10.35541621 -0.09677194 8.32238699 -0.0625 5.375 C-0.05347656 4.37210938 -0.04445312 3.36921875 -0.03515625 2.3359375 C-0.02355469 1.56507812 -0.01195312 0.79421875 0 0 Z " fill="#252525" transform="translate(159,56)"/>
<path d="M0 0 C0 1.32 0 2.64 0 4 C-3.28976808 5.09658936 -4.71303767 4.79953138 -8 4 C-5.57415142 1.34311822 -3.76063134 0 0 0 Z " fill="#B9B9B9" transform="translate(105,76)"/>
<path d="M0 0 C3.96 0.33 7.92 0.66 12 1 C12.33 1.99 12.66 2.98 13 4 C10.36 3.67 7.72 3.34 5 3 C5 2.34 5 1.68 5 1 C3.35 1.33 1.7 1.66 0 2 C0 1.34 0 0.68 0 0 Z " fill="#4B4B4B" transform="translate(119,37)"/>
<path d="M0 0 C1.39195915 4.17587745 -0.17676781 6.13474776 -2 10 C-2.66 9.67 -3.32 9.34 -4 9 C-2.25 2.25 -2.25 2.25 0 0 Z " fill="#1E1E1E" transform="translate(78,123)"/>
<path d="M0 0 C0.33 0 0.66 0 1 0 C1 4.29 1 8.58 1 13 C0.67 13 0.34 13 0 13 C-2.21538462 5.73846154 -2.21538462 5.73846154 -1.125 2 C-0.75375 1.34 -0.3825 0.68 0 0 Z " fill="#999999" transform="translate(73,81)"/>
<path d="M0 0 C3.875 1.75 3.875 1.75 5 4 C3.68 4 2.36 4 1 4 C1 4.66 1 5.32 1 6 C0.34 6 -0.32 6 -1 6 C-0.67 4.02 -0.34 2.04 0 0 Z " fill="#CFCFCF" transform="translate(106,78)"/>
<path d="M0 0 C2.4294516 3.6441774 2.16179575 5.71241272 2 10 C1.34 10 0.68 10 0 10 C-0.19412181 8.52168779 -0.38012131 7.04230684 -0.5625 5.5625 C-0.66691406 4.73878906 -0.77132812 3.91507813 -0.87890625 3.06640625 C-0.91886719 2.38449219 -0.95882812 1.70257813 -1 1 C-0.67 0.67 -0.34 0.34 0 0 Z " fill="#CACACA" transform="translate(157,57)"/>
<path d="M0 0 C3.98175544 2.10148204 6.35039045 4.36905358 9 8 C8.67 8.66 8.34 9.32 8 10 C7.4225 9.236875 6.845 8.47375 6.25 7.6875 C4.16642802 4.99108421 4.16642802 4.99108421 1.75 3.3125 C1.1725 2.879375 0.595 2.44625 0 2 C0 1.34 0 0.68 0 0 Z " fill="#171717" transform="translate(140,54)"/>
<path d="M0 0 C1.875 0.1875 1.875 0.1875 4 1 C5.25 3.5625 5.25 3.5625 6 6 C5.01 6.33 4.02 6.66 3 7 C0 2.25 0 2.25 0 0 Z " fill="#BBBBBB" transform="translate(126,44)"/>
<path d="M0 0 C3.80666984 1.44390925 5.26602582 3.34952803 7 7 C6.67 7.66 6.34 8.32 6 9 C4.76302083 7.50260417 3.52604167 6.00520833 2.2890625 4.5078125 C1.24749008 3.28948839 0.13339903 2.13339903 -1 1 C-0.67 0.67 -0.34 0.34 0 0 Z " fill="#E3E3E3" transform="translate(143,59)"/>
<path d="M0 0 C2.0625 0.4375 2.0625 0.4375 4 1 C4.33 2.32 4.66 3.64 5 5 C4.01 5 3.02 5 2 5 C0.3125 3 0.3125 3 -1 1 C-0.67 0.67 -0.34 0.34 0 0 Z " fill="#141414" transform="translate(97,92)"/>
<path d="M0 0 C2 3.75 2 3.75 2 6 C1.01 6 0.02 6 -1 6 C-1 5.34 -1 4.68 -1 4 C-2.32 3.67 -3.64 3.34 -5 3 C-3.35 2.01 -1.7 1.02 0 0 Z " fill="#555555" transform="translate(121,80)"/>
<path d="M0 0 C1.32 0 2.64 0 4 0 C5.75 2.5 5.75 2.5 7 5 C4.03 4.01 1.06 3.02 -2 2 C-1.34 1.34 -0.68 0.68 0 0 Z " fill="#DADADA" transform="translate(106,53)"/>
<path d="M0 0 C2.31 0.33 4.62 0.66 7 1 C7.33 2.32 7.66 3.64 8 5 C4.20411134 4.45773019 2.52788007 2.79872437 0 0 Z " fill="#D6D6D6" transform="translate(108,46)"/>
<path d="M0 0 C-0.33 0.99 -0.66 1.98 -1 3 C-2.65 2.67 -4.3 2.34 -6 2 C-6 1.34 -6 0.68 -6 0 C-3 -1 -3 -1 0 0 Z " fill="#BABABA" transform="translate(102,82)"/>
<path d="M0 0 C0.66 0.33 1.32 0.66 2 1 C2.625 4.0625 2.625 4.0625 3 7 C2.01 7 1.02 7 0 7 C-0.38133299 5.0085944 -0.71325582 3.00720923 -1 1 C-0.67 0.67 -0.34 0.34 0 0 Z " fill="#9D9D9D" transform="translate(150,63)"/>
<path d="M0 0 C0.66 0.33 1.32 0.66 2 1 C2 3.31 2 5.62 2 8 C1.01 8 0.02 8 -1 8 C-0.67 5.36 -0.34 2.72 0 0 Z " fill="#272727" transform="translate(163,57)"/>
<path d="M0 0 C4.5 2.25 4.5 2.25 6 6 C5.34 6.66 4.68 7.32 4 8 C2.68 5.36 1.36 2.72 0 0 Z " fill="#E0E0E0" transform="translate(148,52)"/>
</svg>
